<svg xmlns="http://www.w3.org/2000/svg" viewBox="0 0 256 256"><defs><style>.cls-1{fill:#bbb;}.cls-2{fill:#fff;}.cls-3{fill:#333;}</style></defs><title>typlog-white@2x</title><path class="cls-1" d="M256,111.8v32.27c0,2.07-.13,4-.26,5.94-1.28,22-10,42.86-24.56,60.29a121.24,121.24,0,0,1-27.12,23.75,129.35,129.35,0,0,1-26.1,13c-2.69,1-5.5,1.94-8.32,2.84a145.82,145.82,0,0,1-21.87,4.65A128.52,128.52,0,0,1,127.94,256C75,256,25.33,226.82,7,180.48a98.84,98.84,0,0,1-7-36.41V111.8a100,100,0,0,0,7,36.53c18.29,46.22,67.93,75.4,120.9,75.4a127.3,127.3,0,0,0,19.83-1.43,147,147,0,0,0,21.87-4.64c2.82-.91,5.63-1.81,8.32-2.84a130.4,130.4,0,0,0,26.1-13A121.49,121.49,0,0,0,231.18,178c14.58-17.43,23.28-38.35,24.56-60.29C255.87,115.8,256,113.86,256,111.8Z"/><path class="cls-2" d="M169.64,217.66a145.58,145.58,0,0,1-41.7,6.07c-53,0-102.61-29.18-120.9-75.4C-16,89.85,19.45,26.21,86.36,6.2A145.77,145.77,0,0,1,128.06,0C181.16,0,230.67,29.18,249,75.39,272,133.87,236.43,197.52,169.64,217.66Z"/><path class="cls-3" d="M236.86,79.14C220.4,37.48,175.72,11.22,127.94,11.22a129.41,129.41,0,0,0-37.43,5.54c-60.1,18-92.11,75.36-71.38,127.89,16.35,41.65,61.14,67.81,108.92,67.81A130.08,130.08,0,0,0,165.47,207C225.46,188.92,257.47,131.56,236.86,79.14Zm-16.93,72c-12,21.43-32.81,37.53-58.6,45.38a116.55,116.55,0,0,1-33.28,4.83C84.3,201.3,45.38,177,31.22,141c-8.87-22.64-7.14-46.89,4.83-68.32S68.87,35.07,94.66,27.32a112.08,112.08,0,0,1,33.28-4.93c43.63,0,82.55,24.25,96.83,60.37C233.64,105.3,231.91,129.55,219.93,151.09Z"/><path class="cls-3" d="M162.17,150.56a9.76,9.76,0,0,1-4.3-.88c-1.84-.91-3.22-1.81-4.72-5-.69-1.51-2.55-5.91-2.65-6.14l-25.33-64.4L142.44,69a37.4,37.4,0,0,1,10.92-2c5.52,0,11.47,1.86,19.94,7.2l5.41-1.61L163.17,50.77l-53,15.9-53,16,3.11,25.46,5.29-1.51C70.6,92,76.7,88.7,86.37,85.78l17.27-5.13L129,145c.09.23,1.84,4.73,2.3,6.24,1,3.42.7,4.83-.23,6.54-1.84,3.82-7.48,5.63-16.46,8.25.81,2.11,2.77,6.89,2.88,7.14l31-9.36,31.09-9.35c-.1-.26-2.07-5-2.88-7C170.48,149.18,165.83,150.56,162.17,150.56Z"/></svg>
